<svg viewBox="0 0 84 84" fill="none" xmlns="http://www.w3.org/2000/svg">
<path d="M77 45.5C77 49.385 73.885 52.5 70 52.5H14C12.1435 52.5 10.363 51.7625 9.05025 50.4497C7.7375 49.137 7 47.3565 7 45.5C7 43.6435 7.7375 41.863 9.05025 40.5503C10.363 39.2375 12.1435 38.5 14 38.5H45.5L54.25 45.5L63 38.5H70C71.8565 38.5 73.637 39.2375 74.9497 40.5503C76.2625 41.863 77 43.6435 77 45.5ZM42 10.5C10.5 10.5 10.5 31.5 10.5 31.5H73.5C73.5 31.5 73.5 10.5 42 10.5ZM10.5 63C10.5 68.81 15.19 73.5 21 73.5H63C68.81 73.5 73.5 68.81 73.5 63V59.5H10.5V63Z" fill="white"/>
</svg>
