<svg viewBox="0 0 35 35" fill="none" xmlns="http://www.w3.org/2000/svg">
<path d="M26.1472 4.34106C25.5556 4.3425 24.9701 4.46105 24.4246 4.68989C23.8791 4.91872 23.3843 5.25331 22.9687 5.67435L5.67325 22.9687L5.60544 23.3111L4.40888 29.3267L4.06763 30.9323L5.67435 30.5911L11.69 29.3945L12.0312 29.3256L29.3267 12.0312C29.7488 11.6164 30.0841 11.1216 30.313 10.5758C30.5419 10.03 30.6598 9.44409 30.6598 8.85224C30.6598 8.26038 30.5419 7.67446 30.313 7.12865C30.0841 6.58284 29.7488 6.08809 29.3267 5.67325C28.9109 5.25228 28.4159 4.91782 27.8702 4.68917C27.3244 4.46052 26.7388 4.34221 26.1472 4.34106ZM26.1472 6.42575C26.6984 6.42575 27.254 6.67731 27.7878 7.21216C28.852 8.27528 28.852 9.42919 27.7878 10.4934L27.0025 11.2448L23.754 7.99747L24.5065 7.21216C25.0414 6.67731 25.5959 6.42575 26.1472 6.42575ZM22.2173 9.53638L25.4636 12.7837L12.2368 26.0093C11.5228 24.6123 10.386 23.4762 8.98841 22.7631L22.2173 9.53638ZM7.58841 24.5415C8.23573 24.802 8.82374 25.1905 9.31712 25.6839C9.81051 26.1773 10.1991 26.7653 10.4595 27.4126L6.86981 28.1301L7.58841 24.5415Z" fill="black"/>
</svg>
