<svg width="60" height="60" viewBox="0 0 60 60" fill="none" xmlns="http://www.w3.org/2000/svg">
<rect width="60" height="60" rx="10" fill="white"/>
<path fill-rule="evenodd" clip-rule="evenodd" d="M9 30.1173C9 40.5578 16.5828 49.2395 26.5 51V35.8328H21.25V30H26.5V25.3328C26.5 20.0828 29.8827 17.1672 34.6672 17.1672C36.1827 17.1672 37.8173 17.4 39.3328 17.6328V23H36.65C34.0828 23 33.5 24.2827 33.5 25.9172V30H39.1L38.1672 35.8328H33.5V51C43.4173 49.2395 51 40.5595 51 30.1173C51 18.5025 41.55 9 30 9C18.45 9 9 18.5025 9 30.1173Z" fill="#395185"/>
</svg>
