<svg viewBox="0 0 75 85" fill="none" xmlns="http://www.w3.org/2000/svg">
<path transform="translate(-6, -4)" d="M40.5239 43.2855C40.6929 42.5538 41.0725 41.8876 41.616 41.3692C41.7829 41.2013 41.9785 41.0644 42.1935 40.965L42.2145 40.9597C42.894 41.0758 43.592 40.9199 44.1576 40.5256C44.7231 40.1313 45.1109 39.5304 45.237 38.8526C45.3632 38.1749 45.2177 37.4746 44.8319 36.9033C44.4461 36.3319 43.851 35.9352 43.1752 35.799C41.0647 35.3527 39.1852 36.45 38.0302 37.5315C36.6974 38.7867 35.7751 40.4154 35.3842 42.204C35.2408 42.8856 35.374 43.5962 35.7545 44.1795C36.1351 44.7629 36.7318 45.1712 37.4133 45.3146C38.0949 45.458 38.8055 45.3248 39.3889 44.9443C39.9722 44.5637 40.3805 43.9671 40.5239 43.2855V43.2855ZM18.621 30.738C9.2392 38.214 8.99245 50.877 13.392 59.4082C16.3477 65.1412 22.0282 70.2442 30.5542 70.2442C32.67 70.2442 34.1925 70.1917 35.3947 70.1392C39.033 70.0027 39.6997 69.9817 44.7607 72.024C51.5017 74.7435 58.6627 73.935 64.6529 70.1602C70.0394 66.7635 73.1317 58.8727 72.6067 52.4677C72.3285 49.0762 72.633 47.6902 72.9795 46.1152C73.4566 44.0841 73.6753 42.0009 73.6304 39.915C73.6304 33.006 71.5829 28.6065 69.5354 25.005C67.4932 21.4035 65.2672 17.8387 58.9672 13.8225C53.7907 10.5255 43.989 8.94523 36.2347 13.245C30.5542 16.4055 27.714 19.272 24.3015 25.005C23.01 27.1732 21.7762 28.2285 18.621 30.738V30.738ZM61.0305 43.7055C61.0305 48.3004 59.2051 52.707 55.9561 55.9561C52.707 59.2052 48.3003 61.0305 43.7055 61.0305C39.1106 61.0305 34.7039 59.2052 31.4548 55.9561C28.2058 52.707 26.3805 48.3004 26.3805 43.7055C26.3805 39.1106 28.2058 34.7039 31.4548 31.4549C34.7039 28.2058 39.1106 26.3805 43.7055 26.3805C48.3003 26.3805 52.707 28.2058 55.9561 31.4549C59.2051 34.7039 61.0305 39.1106 61.0305 43.7055V43.7055Z" fill="white"/>
</svg>
