<svg width="60" height="60" viewBox="0 0 60 60" fill="none" xmlns="http://www.w3.org/2000/svg">
<rect width="60" height="60" rx="10" fill="white"/>
<path d="M49.611 26.083H48V26H30V34H41.303C39.654 38.657 35.223 42 30 42C23.373 42 18 36.627 18 30C18 23.373 23.373 18 30 18C33.059 18 35.842 19.154 37.961 21.039L43.618 15.382C40.046 12.053 35.268 10 30 10C18.955 10 10 18.955 10 30C10 41.045 18.955 50 30 50C41.045 50 50 41.045 50 30C50 28.659 49.862 27.35 49.611 26.083Z" fill="#FFC107"/>
<path d="M12.3059 20.691L18.8769 25.51C20.6549 21.108 24.9609 18 29.9999 18C33.0589 18 35.8419 19.154 37.9609 21.039L43.6179 15.382C40.0459 12.053 35.2679 10 29.9999 10C22.3179 10 15.6559 14.337 12.3059 20.691Z" fill="#FF3D00"/>
<path d="M30.0001 50C35.1661 50 39.8601 48.023 43.4091 44.808L37.2191 39.57C35.1436 41.1484 32.6075 42.0021 30.0001 42C24.7981 42 20.3811 38.683 18.7171 34.054L12.1951 39.079C15.5051 45.556 22.2271 50 30.0001 50Z" fill="#4CAF50"/>
<path d="M49.611 26.083H48V26H30V34H41.303C40.5142 36.2164 39.0934 38.1532 37.216 39.571L37.219 39.569L43.409 44.807C42.971 45.205 50 40 50 30C50 28.659 49.862 27.35 49.611 26.083Z" fill="#1976D2"/>
</svg>
