<svg xmlns="http://www.w3.org/2000/svg" viewBox="0 0 53.86 76.36"><defs><style>.cls-1{fill:#f28034;}</style></defs><g id="Lager_2" data-name="Lager 2"><g id="Lager_1-2" data-name="Lager 1"><path class="cls-1" d="M3.87,19.05c.42,0,1.64-.68,3.65-2q9.92-6.9,20.61-6.9a25.81,25.81,0,0,1,10.75,2.75,11.77,11.77,0,0,0,4.78,1.26c1.6,0,3.33-.82,5.21-2.46s2.81-3.12,2.81-4.29-.7-2.22-2.11-3.3a19.06,19.06,0,0,0-7.24-3,41.09,41.09,0,0,0-9.07-1Q23.35,0,16.88,3.23A35.18,35.18,0,0,0,5.06,13.29a13,13,0,0,0-1.4,2.25,5.47,5.47,0,0,0-.78,2.32C2.88,18.66,3.21,19.05,3.87,19.05Z"/><path class="cls-1" d="M52.17,59.91a5.86,5.86,0,0,0-2.39,1c-1.12.61-2.34,1.31-3.65,2.11a21.17,21.17,0,0,1-5.49,2.18,30.87,30.87,0,0,1-7.66.91q-19.69,0-19.69-27.63a68.54,68.54,0,0,1,1.05-11.74q1.07-6,1.06-6.12c0-1.31-.56-2-1.69-2a10.85,10.85,0,0,0-5.62,2.18,16.17,16.17,0,0,0-4.93,4.57Q0,30.17,0,41.91,0,58.58,7.1,67.5T29,76.36A29.52,29.52,0,0,0,39.09,74.6a27.73,27.73,0,0,0,8-4.22A28.68,28.68,0,0,0,52,65.53a7.48,7.48,0,0,0,1.83-4C53.86,60.45,53.3,59.91,52.17,59.91Z"/></g></g></svg>