<svg viewBox="0 0 78 84" fill="none" xmlns="http://www.w3.org/2000/svg">
<path d="M16.8 16.6152C16.8 12.0162 20.559 8.12276 25.326 8.41676C44.0034 9.56756 60.3834 15.8508 73.2144 28.1022C76.8558 31.5756 76.1376 37.2498 72.3618 40.1478L71.337 40.9374L69.6696 39.0852L69.6402 39.0558C57.309 26.3928 39.438 18.9588 20.4582 18.9588H16.8V16.6152ZM16.8 23.1546V69.3C16.8 74.4744 22.7052 77.4396 26.859 74.3442L33.6126 69.3126V69.321C33.6126 70.4349 34.0551 71.5032 34.8428 72.2908C35.6305 73.0785 36.6987 73.521 37.8126 73.521C38.9266 73.521 39.9948 73.0785 40.7825 72.2908C41.5701 71.5032 42.0126 70.4349 42.0126 69.321V60.9126C42.0169 60.38 42.2233 59.869 42.5901 59.4829C42.957 59.0968 43.4568 58.8645 43.9884 58.833C44.52 58.8015 45.0438 58.9732 45.4536 59.3133C45.8634 59.6534 46.1287 60.1364 46.1958 60.6648V63.0168C46.1958 64.1307 46.6383 65.199 47.426 65.9866C48.2136 66.7743 49.2819 67.2168 50.3958 67.2168C51.5098 67.2168 52.578 66.7743 53.3657 65.9866C54.1533 65.199 54.5958 64.1307 54.5958 63.0168V53.6172C58.0608 51.0762 63.357 47.0484 67.9938 43.5036L66.6036 41.9538C55.0998 30.1602 38.346 23.1546 20.454 23.1546H16.8ZM34.6416 34.671C34.6414 35.0832 34.5599 35.4914 34.4019 35.8722C34.2438 36.253 34.0123 36.599 33.7206 36.8903C33.4289 37.1816 33.0826 37.4127 32.7016 37.5702C32.3206 37.7277 31.9123 37.8086 31.5 37.8084C31.0878 37.8081 30.6796 37.7266 30.2988 37.5686C29.918 37.4105 29.572 37.1791 29.2807 36.8873C28.9894 36.5956 28.7583 36.2494 28.6008 35.8684C28.4433 35.4874 28.3624 35.079 28.3626 34.6668C28.3626 33.8341 28.6934 33.0356 29.2822 32.4468C29.871 31.858 30.6695 31.5273 31.5021 31.5273C32.3348 31.5273 33.1333 31.858 33.7221 32.4468C34.3109 33.0356 34.6416 33.8341 34.6416 34.6668V34.671ZM47.1366 43.071C47.1366 43.9036 46.8059 44.7022 46.2171 45.2909C45.6283 45.8797 44.8298 46.2105 43.9971 46.2105C43.1645 46.2105 42.366 45.8797 41.7772 45.2909C41.1884 44.7022 40.8576 43.9036 40.8576 43.071C40.8576 42.2383 41.1884 41.4398 41.7772 40.851C42.366 40.2622 43.1645 39.9315 43.9971 39.9315C44.8298 39.9315 45.6283 40.2622 46.2171 40.851C46.8059 41.4398 47.1366 42.2383 47.1366 43.071ZM34.6752 53.5794C34.6752 54.4165 34.3427 55.2193 33.7508 55.8112C33.1589 56.4031 32.356 56.7357 31.5189 56.7357C30.6818 56.7357 29.879 56.4031 29.2871 55.8112C28.6952 55.2193 28.3626 54.4165 28.3626 53.5794C28.3626 52.7423 28.6952 51.9394 29.2871 51.3475C29.879 50.7556 30.6818 50.4231 31.5189 50.4231C32.356 50.4231 33.1589 50.7556 33.7508 51.3475C34.3427 51.9394 34.6752 52.7423 34.6752 53.5794Z" fill="white"/>
</svg>
