<svg transform="translate(4, 0)" viewBox="0 0 84 84" fill="none" xmlns="http://www.w3.org/2000/svg">
<g clip-path="url(#clip0_123_1100)">
<path d="M30.8 16.8C30.0574 16.8 29.3452 17.095 28.8201 17.6202C28.295 18.1453 28 18.8574 28 19.6H15.4C12.2686 19.5948 9.21036 20.5464 6.63476 22.3274C4.05915 24.1084 2.08914 26.6338 0.988497 29.5654C-0.112145 32.4969 -0.290874 35.6948 0.47624 38.7308C1.24336 41.7668 2.9197 44.496 5.2808 46.5528C3.67333 47.5523 2.3457 48.9432 1.42213 50.5955C0.498562 52.2477 0.00925607 54.1072 0 56.0001C0 62.1601 5.04 67.2001 11.2 67.2001H56C62.16 67.2001 67.2 62.1601 67.2 56.0001C67.2 53.2673 66.1584 50.792 64.512 48.8489L76.7032 54.2416C77.209 54.4729 77.7556 54.6015 78.3115 54.6198C78.8673 54.6382 79.4213 54.5459 79.9412 54.3484C80.4611 54.151 80.9366 53.8522 81.3401 53.4695C81.7437 53.0868 82.0672 52.6278 82.2919 52.119C82.5166 51.6103 82.638 51.062 82.6491 50.506C82.6602 49.95 82.5608 49.3973 82.3566 48.88C82.1524 48.3627 81.8475 47.8911 81.4595 47.4925C81.0716 47.094 80.6084 46.7765 80.0968 46.5585L69.9608 42.0673L79.0888 40.544C79.633 40.4536 80.1541 40.2568 80.6222 39.965C81.0904 39.6732 81.4965 39.292 81.8173 38.8432C82.1382 38.3945 82.3675 37.8869 82.4921 37.3495C82.6168 36.8121 82.6345 36.2554 82.544 35.7112C82.4536 35.1671 82.2568 34.646 81.965 34.1778C81.6731 33.7097 81.292 33.3036 80.8432 32.9827C80.3944 32.6619 79.8869 32.4326 79.3495 32.3079C78.8121 32.1832 78.2554 32.1656 77.7112 32.2561L65.7832 34.244C63.0448 27.7312 56.2128 21.1904 44.8 19.88V19.6C44.8 18.8574 44.505 18.1453 43.9799 17.6202C43.4548 17.095 42.7426 16.8 42 16.8H30.8ZM33.6 22.4H39.2V61.6001H33.6V22.4ZM53.2 44.8001C54.6504 44.8001 55.7984 45.9032 55.944 47.32L56.3696 46.5697C56.5521 46.2486 56.7963 45.9669 57.0882 45.7407C57.38 45.5144 57.7137 45.3481 58.0701 45.2514C58.4264 45.1546 58.7984 45.1293 59.1646 45.1769C59.5308 45.2245 59.8839 45.3441 60.2037 45.5287C60.5235 45.7134 60.8036 45.9594 61.0279 46.2527C61.2522 46.5461 61.4163 46.8809 61.5107 47.2379C61.6051 47.5949 61.6279 47.967 61.5779 48.3329C61.5279 48.6987 61.406 49.0511 61.2192 49.3697L59.7744 51.8785C60.3515 52.3984 60.8124 53.0342 61.127 53.7445C61.4415 54.4547 61.6027 55.2233 61.6 56.0001C61.6 59.1529 59.1528 61.6001 56 61.6001H44.8V50.4001H50.4V47.6001C50.4 46.0489 51.6488 44.8001 53.2 44.8001ZM13.664 45.192C14.2096 45.1234 14.7633 45.2175 15.2555 45.4626C15.7477 45.7077 16.1565 46.0929 16.4304 46.5697L17.5504 48.5184C17.8086 48.2303 18.1245 47.9996 18.4776 47.8414C18.8307 47.6832 19.2131 47.601 19.6 47.6001C21.1512 47.6 22.4 48.8489 22.4 50.4001H28V61.6001H11.2C8.0472 61.6001 5.6 59.1529 5.6 56.0001C5.6 52.8473 8.0472 50.4001 11.2 50.4001H12.1744L11.5808 49.3697C11.3455 48.9704 11.2137 48.5186 11.1973 48.0555C11.1808 47.5923 11.2803 47.1324 11.4867 46.7174C11.693 46.3025 11.9998 45.9456 12.379 45.6792C12.7583 45.4128 13.198 45.2454 13.6584 45.192H13.664Z" fill="white"/>
</g>
<defs>
<clipPath id="clip0_123_1100">
<rect width="84" height="84" fill="white"/>
</clipPath>
</defs>
</svg>
