<svg id="Lager_1" data-name="Lager 1" xmlns="http://www.w3.org/2000/svg" viewBox="0 0 287.58 109.42">
<defs>
<style>.cls-1,.cls-2{fill:#FFFFFF;}.cls-2{fill-rule:evenodd;}</style>
</defs>
<path class="cls-1" d="M10.34,111.88c.42,0,1.64-.68,3.65-2q9.92-6.9,20.6-6.89a25.83,25.83,0,0,1,10.76,2.74A11.77,11.77,0,0,0,50.13,107c1.6,0,3.33-.82,5.21-2.46s2.81-3.11,2.81-4.29S57.45,98,56,96.9a19,19,0,0,0-7.24-3,40.53,40.53,0,0,0-9.07-1.06q-9.91,0-16.39,3.23a35.15,35.15,0,0,0-11.81,10.06,14.06,14.06,0,0,0-1.41,2.25,5.57,5.57,0,0,0-.77,2.32Q9.35,111.88,10.34,111.88Z" transform="translate(-6.47 -59.76)"/>
<path class="cls-1" d="M84.66,117.43q-1.48,0-4.08,1.83a22.4,22.4,0,0,0-4.5,3.94,8.7,8.7,0,0,0-1.9,6v35.44c0,2,.82,3,2.46,3a11.65,11.65,0,0,0,6.75-2.46,7.65,7.65,0,0,0,3.45-6.4V120.45C86.84,118.44,86.11,117.43,84.66,117.43Z" transform="translate(-6.47 -59.76)"/>
<path class="cls-1" d="M244.05,111.88q.64,0,3.66-2,9.91-6.9,20.6-6.89a25.83,25.83,0,0,1,10.76,2.74,11.77,11.77,0,0,0,4.78,1.26q2.4,0,5.2-2.46c1.88-1.69,2.82-3.11,2.82-4.29s-.71-2.22-2.11-3.3a19,19,0,0,0-7.24-3,40.53,40.53,0,0,0-9.07-1.06q-9.92,0-16.39,3.23a35.15,35.15,0,0,0-11.81,10.06,14.06,14.06,0,0,0-1.41,2.25,5.57,5.57,0,0,0-.77,2.32C243.07,111.48,243.4,111.88,244.05,111.88Z" transform="translate(-6.47 -59.76)"/>
<path class="cls-1" d="M166.22,105.05h18.84q5.83,0,8.09-.84a12.18,12.18,0,0,0,4.64-3.37q2.39-2.53,2.39-4.22T197.72,95H178.88a4.39,4.39,0,0,1-2.75-.77,3.63,3.63,0,0,1-1-3V82.2c0-2-.82-3-2.46-3a11.38,11.38,0,0,0-6.75,2.53A7.47,7.47,0,0,0,162.49,88v13.29a3.58,3.58,0,0,0,1,3A4.3,4.3,0,0,0,166.22,105.05Z" transform="translate(-6.47 -59.76)"/>
<path class="cls-1" d="M58.64,152.73a5.86,5.86,0,0,0-2.39,1c-1.13.61-2.34,1.31-3.66,2.11A20.93,20.93,0,0,1,47.11,158a30.93,30.93,0,0,1-7.66.91q-19.7,0-19.69-27.63a68.54,68.54,0,0,1,1-11.74q1.07-6,1.06-6.12c0-1.31-.57-2-1.69-2-1.55,0-3.42.73-5.63,2.18a16.24,16.24,0,0,0-4.92,4.57Q6.46,123,6.47,134.73q0,16.67,7.1,25.59t21.87,8.86a29.52,29.52,0,0,0,10.12-1.76,27.87,27.87,0,0,0,8-4.22,28.32,28.32,0,0,0,4.92-4.85,7.45,7.45,0,0,0,1.83-4C60.33,153.27,59.77,152.73,58.64,152.73Z" transform="translate(-6.47 -59.76)"/>
<path class="cls-1" d="M222.61,92.82A10.09,10.09,0,0,0,218,94.16a15.38,15.38,0,0,0-4.29,3.44,6.8,6.8,0,0,0-1.27,4.29v62.79c0,2,.82,3,2.47,3a10.16,10.16,0,0,0,4.57-1.26A14.82,14.82,0,0,0,223.8,163a7,7,0,0,0,1.27-4.36V95.84C225.07,93.83,224.25,92.82,222.61,92.82Z" transform="translate(-6.47 -59.76)"/>
<path class="cls-1" d="M112.78,94.58a22.35,22.35,0,0,0-8.37-1.76q-6.6,0-14.13,7.52c-1.12,1.13-1.94,1.69-2.46,1.69s-1-.75-1-2.25V95.84c0-2-.82-3-2.46-3a11.67,11.67,0,0,0-6.76,2.53,7.61,7.61,0,0,0-3.44,6.33v13.64c0,1.73.52,2.6,1.55,2.6a4.41,4.41,0,0,0,2.6-1.33c1.17-1,2.79-2.51,4.85-4.43s3.59-3.31,4.43-4,2-1.62,3.37-2.6a12.67,12.67,0,0,1,3.59-2A9.26,9.26,0,0,1,97.8,103a13.85,13.85,0,0,1,5.91,1.54,13.13,13.13,0,0,0,5.34,1.76q2.25,0,5.21-2.39t2.95-4.71Q117.21,96.33,112.78,94.58Z" transform="translate(-6.47 -59.76)"/>
<path class="cls-1" d="M292.36,152.73a5.81,5.81,0,0,0-2.39,1c-1.13.61-2.35,1.31-3.66,2.11a20.93,20.93,0,0,1-5.48,2.18,31,31,0,0,1-7.67.91q-19.68,0-19.68-27.63a68.54,68.54,0,0,1,1.05-11.74c.7-4,1.06-6.07,1.06-6.12,0-1.31-.57-2-1.69-2-1.55,0-3.42.73-5.63,2.18a16.24,16.24,0,0,0-4.92,4.57q-3.16,4.78-3.16,16.53,0,16.67,7.1,25.59t21.87,8.86a29.52,29.52,0,0,0,10.12-1.76,28,28,0,0,0,8-4.22,28.32,28.32,0,0,0,4.92-4.85,7.45,7.45,0,0,0,1.83-4C294.05,153.27,293.48,152.73,292.36,152.73Z" transform="translate(-6.47 -59.76)"/>
<path class="cls-1" d="M199.9,153.92a3,3,0,0,0-2,.85c-.66.51-1.48,1.1-2.46,1.75a21.48,21.48,0,0,1-3.73,1.76,16.46,16.46,0,0,1-5.48.77,10.27,10.27,0,0,1-4.92-1.12,8.92,8.92,0,0,1-3.45-3.73,23.51,23.51,0,0,1-2-6.75,63.5,63.5,0,0,1-.7-10.26V112.58a4,4,0,0,0-.49-2.11,2.89,2.89,0,0,0-1.34-1.13,5.28,5.28,0,0,0-2-.49,20.09,20.09,0,0,0-2.39-.14h-2a6.81,6.81,0,0,0-2.11.35,4,4,0,0,0-1.69,1.2,3.61,3.61,0,0,0-.63,2.32v27.21a75.59,75.59,0,0,0,1.06,13.78,24,24,0,0,0,3.44,9.07,13.73,13.73,0,0,0,6.12,5,24.43,24.43,0,0,0,9.21,1.55,21.93,21.93,0,0,0,9.21-1.69,19.9,19.9,0,0,0,6-3.79,14.24,14.24,0,0,0,3.16-4.43,9.51,9.51,0,0,0,1-3.45,2,2,0,0,0-.43-1.34A1.56,1.56,0,0,0,199.9,153.92Z" transform="translate(-6.47 -59.76)"/>
<path class="cls-1" d="M136.12,92.82a10.12,10.12,0,0,0-4.64,1.34,15.2,15.2,0,0,0-4.28,3.44,6.74,6.74,0,0,0-1.27,4.29v62.79c0,2,.82,3,2.46,3a10.1,10.1,0,0,0,4.57-1.26,14.86,14.86,0,0,0,4.36-3.45,7.09,7.09,0,0,0,1.27-4.36V95.84C138.59,93.83,137.77,92.82,136.12,92.82Z" transform="translate(-6.47 -59.76)"/>
<path class="cls-1" d="M157.29,95q-1.83,0-4.92,3.3c-2,2.21-3,3.94-3,5.21,0,1,.82,1.54,2.46,1.54h3.31c1.45,0,2.44-.32,2.95-1a4.32,4.32,0,0,0,.78-2.74v-4C158.84,95.77,158.32,95,157.29,95Z" transform="translate(-6.47 -59.76)"/>
<path class="cls-2" d="M125.81,78.36l-.52,7c0,.5.4.83.79.61,2.77-1.54,11.42-7.23,15.81-19.73.2-.57-.34-1.09-.8-.76-2.59,1.81-8.26,5.56-11.76,6.28a13.55,13.55,0,0,0,3.59-3.95.72.72,0,0,0,0-.75L128,60a.55.55,0,0,0-1,.29L125.48,68l-7.15,6.24a.68.68,0,0,0,.13,1.11Zm12.65-2.76a17.45,17.45,0,0,1-2.33,2.73.34.34,0,0,0,.05.56l4.76,3a.39.39,0,0,0,.62-.34c-.22-1.43-.85-4.41-2.47-6A.43.43,0,0,0,138.46,75.6Z" transform="translate(-6.47 -59.76)"/>
<path class="cls-2" d="M212.3,78.36l-.52,7c0,.5.4.83.79.61,2.76-1.54,11.42-7.23,15.8-19.73.21-.57-.33-1.09-.8-.76-2.59,1.81-8.25,5.56-11.75,6.28a13.44,13.44,0,0,0,3.58-3.95.72.72,0,0,0,0-.75L214.48,60a.55.55,0,0,0-1,.29L212,68l-7.15,6.24a.67.67,0,0,0,.13,1.11Zm12.64-2.76a17.45,17.45,0,0,1-2.33,2.73.35.35,0,0,0,0,.56l4.76,3a.4.4,0,0,0,.63-.34c-.22-1.43-.86-4.41-2.47-6A.44.44,0,0,0,224.94,75.6Z" transform="translate(-6.47 -59.76)"/>
</svg>