<svg viewBox="0 0 35 37" fill="none" xmlns="http://www.w3.org/2000/svg">
<path transform="translate(0, -1)" d="M32.0834 31.1666V19.7537C32.0835 18.9597 31.9215 18.174 31.6073 17.4448C31.2931 16.7156 30.8333 16.0582 30.2561 15.5129L19.5038 5.3512C18.9623 4.83922 18.2453 4.55396 17.5001 4.55396C16.7548 4.55396 16.0379 4.83922 15.4963 5.3512L4.74404 15.5129C4.16687 16.0582 3.7071 16.7156 3.39289 17.4448C3.07869 18.174 2.91666 18.9597 2.91675 19.7537V31.1666C2.91675 31.9402 3.22404 32.682 3.77102 33.229C4.318 33.776 5.05987 34.0833 5.83342 34.0833H29.1668C29.9403 34.0833 30.6822 33.776 31.2291 33.229C31.7761 32.682 32.0834 31.9402 32.0834 31.1666Z" stroke="#b5b5b5" stroke-width="2" stroke-linecap="round" stroke-linejoin="round"/>
<path transform="translate(0, -1)" d="M15.293 22.0469C15.293 25.1172 16.3867 26.6523 18.5742 26.6523C19.0273 26.6523 19.4531 26.6016 19.8516 26.5C20.25 26.3906 20.5547 26.2695 20.7656 26.1367C20.9844 26.0039 21.1875 25.8867 21.375 25.7852C21.5625 25.6758 21.6953 25.6211 21.7734 25.6211C21.9609 25.6211 22.0547 25.7109 22.0547 25.8906C22.0547 26.0625 21.9531 26.2852 21.75 26.5586C21.5469 26.8242 21.2734 27.0938 20.9297 27.3672C20.5859 27.6406 20.1406 27.875 19.5938 28.0703C19.0547 28.2656 18.4922 28.3633 17.9062 28.3633C16.2656 28.3633 15.0508 27.8711 14.2617 26.8867C13.4727 25.8945 13.0781 24.4727 13.0781 22.6211C13.0781 21.3164 13.2539 20.3984 13.6055 19.8672C13.7852 19.5938 14.0586 19.3398 14.4258 19.1055C14.793 18.8633 15.1055 18.7422 15.3633 18.7422C15.5508 18.7422 15.6445 18.8516 15.6445 19.0703C15.6445 19.0781 15.5859 19.418 15.4688 20.0898C15.3516 20.7617 15.293 21.4141 15.293 22.0469ZM21.3398 16.3164C21.5742 16.4961 21.6914 16.6797 21.6914 16.8672C21.6914 17.0625 21.5352 17.3008 21.2227 17.582C20.9102 17.8555 20.6211 17.9922 20.3555 17.9922C20.1289 17.9922 19.8633 17.9219 19.5586 17.7812C18.9023 17.4766 18.3047 17.3242 17.7656 17.3242C16.5781 17.3242 15.4336 17.707 14.332 18.4727C13.9961 18.6992 13.793 18.8125 13.7227 18.8125C13.6133 18.8125 13.5586 18.7461 13.5586 18.6133C13.5586 18.5195 13.6016 18.3906 13.6875 18.2266C13.7734 18.0625 13.8516 17.9375 13.9219 17.8516C14.5156 17.0938 15.1719 16.5352 15.8906 16.1758C16.6094 15.8164 17.5195 15.6367 18.6211 15.6367C19.1133 15.6367 19.6172 15.6953 20.1328 15.8125C20.6484 15.9297 21.0508 16.0977 21.3398 16.3164Z" fill="#b5b5b5"/>
</svg>
