<svg viewBox="0 0 35 35" fill="none" xmlns="http://www.w3.org/2000/svg">
<path d="M11.8125 19.4542L15.9396 15.3271L5.70211 5.10417C4.6096 6.19983 3.99609 7.68397 3.99609 9.23125C3.99609 10.7785 4.6096 12.2627 5.70211 13.3583L11.8125 19.4542ZM21.7 16.8146C23.9313 17.85 27.0667 17.1208 29.3854 14.8021C32.1709 12.0167 32.7104 8.02083 30.5667 5.87708C28.4375 3.74792 24.4417 4.27292 21.6417 7.05833C19.3229 9.37708 18.5938 12.5125 19.6292 14.7437L5.39586 28.9771L7.45211 31.0333L17.5 21.0146L27.5334 31.0479L29.5896 28.9917L19.5563 18.9583L21.7 16.8146Z" fill="black"/>
</svg>
