<svg width="60" height="60" viewBox="0 0 60 60" fill="none" xmlns="http://www.w3.org/2000/svg">
<rect width="60" height="60" rx="10" fill="white"/>
<path d="M52 16.3837C50.3524 17.1152 48.6047 17.5954 46.8152 17.8082C48.6792 16.6886 50.1104 14.9157 50.7843 12.8032C49.0124 13.857 47.0737 14.5995 45.0521 14.9985C43.4054 13.2404 41.0595 12.1416 38.463 12.1416C33.4775 12.1416 29.4356 16.1922 29.4356 21.1881C29.4356 21.8973 29.5155 22.5876 29.6693 23.2499C22.167 22.8725 15.5154 19.271 11.063 13.7976C10.2861 15.1337 9.84095 16.6879 9.84095 18.3457C9.84095 21.4844 11.4348 24.2533 13.8568 25.8757C12.4233 25.8307 11.0213 25.4427 9.76791 24.744C9.76739 24.7819 9.76739 24.8198 9.76739 24.8579C9.76739 29.2411 12.879 32.8976 17.0085 33.7287C15.6792 34.091 14.2848 34.144 12.932 33.8837C14.0806 37.4778 17.4145 40.0933 21.3645 40.1665C18.275 42.5928 14.3826 44.0391 10.1534 44.0391C9.42467 44.0391 8.70623 43.9963 8 43.9127C11.9949 46.4796 16.7398 47.9773 21.8377 47.9773C38.442 47.9773 47.5216 34.192 47.5216 22.2373C47.5216 21.8449 47.513 21.4547 47.4955 21.0668C49.2628 19.7865 50.7881 18.2007 52 16.3837Z" fill="#55ACEE"/>
</svg>
